# xmcd
#
# Track frame offsets: 
#        150
#        19734
#        36998
#        54972
#        75191
#        92832
#
# Disc length: 1462 seconds
#
# Revision: 0
# Processed by: cddbd v1.5.2PL0 Copyright (c) Steve Scherf et al.
# Submitted via: ExactAudioCopyFreeDBPlugin 1.0
#
DISCID=3905b406
DTITLE=Michael Carubelli - Here We Go
DYEAR=2012
DGENRE=Country
TTITLE0=I Move On
TTITLE1=The Girl I Didn't Meet
TTITLE2=Tell Me
TTITLE3=Sorry For Partyin
TTITLE4=You Left With The Summer
TTITLE5=Daddys Texas Girl
EXTD=
EXTT0=
EXTT1=
EXTT2=
EXTT3=
EXTT4=
EXTT5=
PLAYORDER=
